<svg height="496pt" viewBox="-92 0 496 496.16" width="496pt" xmlns="http://www.w3.org/2000/svg"><path d="m264.089844 496.007812c-4.425782 0-8-3.574218-8-8v-111.953124c0-4.421876 3.574218-8 8-8 4.421875 0 8 3.578124 8 8v111.953124c0 4.425782-3.578125 8-8 8zm0 0" fill="#ccd1d9"/><path d="m312.078125 240v88.007812c0 26.558594-21.511719 48-48 48-26.476563 0-48-21.441406-48-48v-88.007812zm0 0" fill="#ffce54"/><path d="m296.0625 240v88.007812c0 23.824219-17.320312 43.472657-39.992188 47.28125 2.609376.4375 5.273438.71875 8.007813.71875 26.488281 0 48-21.441406 48-48v-88.007812zm0 0" fill="#f6bb42"/><path d="m216.078125 176h96v64h-96zm0 0" fill="#e6e9ed"/><path d="m296.0625 176h16.015625v64h-16.015625zm0 0" fill="#ccd1d9"/><path d="m108.078125 8v48l-4 8h-48l-4-8v-48c0-4.398438 3.523437-8 8-8h40c4.402344 0 8 3.601562 8 8zm0 0" fill="#ffce54"/><path d="m100.078125 0h-24.023437c4.402343 0 8 3.601562 8 8v48l-4 8h24.023437l4-8v-48c0-4.398438-3.597656-8-8-8zm0 0" fill="#f6bb42"/><path d="m121.441406 176c3.359375 7.761719 7.039063 15.761719 10.636719 24.078125h-104c3.601563-8.316406 7.28125-16.316406 10.640625-24.078125zm0 0" fill="#656d78"/><path d="m121.441406 176h-82.722656c9.679688-22 17.359375-41.199219 17.359375-56v-56h48v56c0 14.800781 7.683594 34 17.363281 56zm0 0" fill="#f6bb42"/><path d="m136.078125 344v112h-112v-112h32c0 13.28125 10.722656 24 24 24 13.203125 0 24-10.71875 24-24zm0 0" fill="#fff"/><path d="m136.078125 344h-32c0-13.28125-10.796875-24-24-24-13.277344 0-24 10.71875-24 24h-32v112h112zm24-39.921875v175.921875.160156c-.078125 8.808594-7.277344 15.839844-16 15.839844h-128v.160156c-8.878906 0-16-7.191406-16-16v-176.082031c0-36 14-71.917969 28-104h104c14 32.082031 28 68 28 104zm0 0" fill="#a0d468"/><path d="m132.078125 200.078125c-3.597656-8.316406-7.277344-16.316406-10.636719-24.078125-9.679687-22-17.363281-41.199219-17.363281-56v-56h-24.023437v56c0 14.800781 7.679687 34 17.359374 56 3.363282 7.761719 7.042969 15.761719 10.640626 24.078125 14 32.082031 28 68 28 104v39.921875h.023437v112h-.023437v24 .160156c-.078126 8.808594-7.277344 15.839844-16 15.839844h24.023437c8.722656 0 15.921875-7.039062 16-15.839844 0-.082031 0-.082031 0-.160156v-175.921875c0-36-14-71.917969-28-104zm0 0" fill="#a0d468"/><path d="m16.078125 496.160156v-.160156h-1.550781c.519531.046875 1.023437.160156 1.550781.160156zm0 0" fill="#a0d468"/><path d="m132.078125 200.078125h-24.023437c14 32.082031 28 68 28 104v39.921875h.023437v112h-.023437v24 .160156c-.078126 8.808594-7.277344 15.839844-16 15.839844h24.023437c8.722656 0 15.921875-7.039062 16-15.839844 0-.082031 0-.082031 0-.160156v-175.921875c0-36-14-71.917969-28-104zm0 0" fill="#8cc152"/><path d="m121.441406 176h-24.027344c3.363282 7.761719 7.042969 15.761719 10.640626 24.078125h24.023437c-3.597656-8.316406-7.277344-16.316406-10.636719-24.078125zm0 0" fill="#434a54"/><path d="m104.078125 120v-56h-24.023437v56c0 14.800781 7.679687 34 17.359374 56h24.027344c-9.679687-22-17.363281-41.199219-17.363281-56zm0 0" fill="#edab37"/><path d="m104.054688 408.007812h-47.984376c-4.421874 0-8-3.574218-8-8 0-4.421874 3.578126-8 8-8h47.984376c4.425781 0 8 3.578126 8 8 0 4.425782-3.574219 8-8 8zm0 0" fill="#a0d468"/><path d="m88.054688 432.015625h-15.984376c-4.421874 0-8-3.574219-8-8 0-4.421875 3.578126-8 8-8h15.984376c4.425781 0 8 3.578125 8 8 0 4.425781-3.574219 8-8 8zm0 0" fill="#a0d468"/><path d="m304.089844 496.007812h-80.019532c-4.421874 0-8-3.574218-8-8 0-4.421874 3.578126-8 8-8h80.019532c4.421875 0 8 3.578126 8 8 0 4.425782-3.578125 8-8 8zm0 0" fill="#e6e9ed"/><g fill="#f6bb42"><path d="m280.335938 352.070312c-4.425782 0-8.039063-3.574218-8.039063-8 0-4.421874 3.535156-8 7.949219-8h.089844c4.417968 0 8 3.578126 8 8 0 4.425782-3.582032 8-8 8zm0 0"/><path d="m264.335938 328.078125c-4.425782 0-8.039063-3.574219-8.039063-8 0-4.421875 3.535156-8 7.949219-8h.089844c4.417968 0 8 3.578125 8 8 0 4.425781-3.582032 8-8 8zm0 0"/><path d="m288.320312 312.089844c-4.425781 0-8.039062-3.578125-8.039062-8 0-4.425782 3.535156-8 7.949219-8h.089843c4.414063 0 8 3.574218 8 8 0 4.421875-3.585937 8-8 8zm0 0"/></g><path d="m80.078125 316c15.410156 0 28 12.503906 28 28s-12.589844 28-28 28c-15.492187 0-28-12.503906-28-28s12.507813-28 28-28zm0 0" fill="#656d78"/></svg>