<svg height="512" width="512" xmlns="http://www.w3.org/2000/svg"><path d="M352 16H160a16 16 0 0 0-16 16v160a112.018 112.018 0 0 0 96 110.857V448a32 32 0 0 1-32 32h-24a8 8 0 0 0-8 8v8h160v-8a8 8 0 0 0-8-8h-24a32 32 0 0 1-32-32V302.857A112.018 112.018 0 0 0 368 192V32a16 16 0 0 0-16-16z" fill="#d7e6f0"/><path d="M248 496h88v-8h-80a8 8 0 0 0-8 8zM352 16h-96v176a56 56 0 0 1-56 56 56 56 0 0 1-56-56 112.018 112.018 0 0 0 96 110.857V320a16 16 0 0 1 16 16v144h48a32 32 0 0 1-32-32V302.857A112.018 112.018 0 0 0 368 192V32a16 16 0 0 0-16-16z" fill="#a5c3dc"/><path d="M256 288a96.108 96.108 0 0 1-96-96V64h192v128a96.108 96.108 0 0 1-96 96z" fill="#aa2823"/><path d="M173.758 241.472A55.736 55.736 0 0 0 200 248a56 56 0 0 0 56-56V64h-96v128a95.419 95.419 0 0 0 13.758 49.472z" fill="#e13741"/><rect fill="#fff" height="168" rx="8" width="16" x="176" y="32"/></svg>