<svg height="512" viewBox="0 0 512 512" width="512" xmlns="http://www.w3.org/2000/svg"><path d="m352 16h-192a16 16 0 0 0 -16 16v160a112.018 112.018 0 0 0 96 110.857v145.143a32 32 0 0 1 -32 32h-24a8 8 0 0 0 -8 8v8h160v-8a8 8 0 0 0 -8-8h-24a32 32 0 0 1 -32-32v-145.143a112.018 112.018 0 0 0 96-110.857v-160a16 16 0 0 0 -16-16z" fill="#d7e6f0"/><path d="m248 496h88v-8h-80a8 8 0 0 0 -8 8z" fill="#a5c3dc"/><path d="m352 16h-96v176a56 56 0 0 1 -56 56 56 56 0 0 1 -56-56 112.018 112.018 0 0 0 96 110.857v17.143a16 16 0 0 1 16 16v144h48a32 32 0 0 1 -32-32v-145.143a112.018 112.018 0 0 0 96-110.857v-160a16 16 0 0 0 -16-16z" fill="#a5c3dc"/><path d="m256 288a96.108 96.108 0 0 1 -96-96v-128h192v128a96.108 96.108 0 0 1 -96 96z" fill="#f05a50"/><path d="m173.758 241.472a55.736 55.736 0 0 0 26.242 6.528 56 56 0 0 0 56-56v-128h-96v128a95.419 95.419 0 0 0 13.758 49.472z" fill="#f58773"/><rect fill="#fff" height="168" rx="8" width="16" x="176" y="32"/></svg>